<?xml version="1.0" encoding="utf-8"?>
<!-- Generator: Adobe Illustrator 24.0.2, SVG Export Plug-In . SVG Version: 6.00 Build 0)  -->
<svg version="1.1" id="Layer_1" xmlns="http://www.w3.org/2000/svg" xmlns:xlink="http://www.w3.org/1999/xlink" x="0px" y="0px"
	 viewBox="0 0 580 113.08" style="enable-background:new 0 0 580 113.08;" xml:space="preserve">
<style type="text/css">
	.st0{fill:#010101;}
	.st1{fill:none;stroke:#FEC931;stroke-width:4;stroke-linecap:round;stroke-miterlimit:10;}
</style>
<g>
	<g>
		<path class="st0" d="M2,112.51V57.14h10.43v55.37H2z M5.81,67.57V57.14h32.56v10.43H5.81z M5.81,90.72V80.29l28.37-0.04v10.43
			L5.81,90.72z"/>
		<path class="st0" d="M80.28,113.08c-4.06,0-7.61-0.84-10.64-2.53c-3.03-1.69-5.39-4.07-7.06-7.14c-1.68-3.07-2.51-6.65-2.51-10.74
			V76.98c0-4.09,0.84-7.67,2.51-10.74c1.68-3.07,4.03-5.45,7.06-7.14c3.03-1.69,6.58-2.53,10.64-2.53c4.06,0,7.61,0.84,10.64,2.53
			c3.03,1.69,5.39,4.07,7.06,7.14c1.68,3.07,2.51,6.65,2.51,10.74v15.69c0,4.09-0.84,7.67-2.51,10.74
			c-1.68,3.07-4.03,5.45-7.06,7.14C87.89,112.23,84.34,113.08,80.28,113.08z M80.28,102.64c2.84,0,5.12-0.88,6.84-2.65
			c1.71-1.76,2.57-4.12,2.57-7.06V76.71c0-2.94-0.86-5.3-2.57-7.06C85.4,67.88,83.12,67,80.28,67c-2.84,0-5.12,0.88-6.84,2.65
			c-1.71,1.77-2.57,4.12-2.57,7.06v16.22c0,2.95,0.86,5.3,2.57,7.06C75.16,101.76,77.44,102.64,80.28,102.64z"/>
		<path class="st0" d="M127.14,112.51V57.1h11.2v55.41H127.14z M131.29,90.23v-9.67h19.27c1.65,0,2.96-0.63,3.94-1.89
			c0.98-1.26,1.47-2.93,1.47-5.01c0-2.08-0.49-3.75-1.47-5.01c-0.98-1.26-2.29-1.89-3.94-1.89h-19.27V57.1h20.11
			c3.07,0,5.76,0.69,8.05,2.06c2.3,1.37,4.08,3.3,5.35,5.79c1.27,2.49,1.9,5.39,1.9,8.72c0,3.33-0.63,6.23-1.9,8.72
			c-1.27,2.49-3.05,4.42-5.35,5.79c-2.3,1.37-4.98,2.06-8.05,2.06H131.29z M156.39,112.51l-13.44-23.99l11.16-1.75l14.93,25.74
			H156.39z"/>
		<path class="st0" d="M211.9,113.08c-4.24,0-7.85-0.81-10.83-2.42c-2.98-1.61-5.26-3.95-6.83-7.03c-1.57-3.07-2.36-6.8-2.36-11.2
			V77.24c0-4.37,0.79-8.09,2.36-11.18c1.57-3.08,3.85-5.44,6.83-7.06c2.98-1.62,6.6-2.44,10.83-2.44c3.5,0,6.62,0.75,9.35,2.25
			c2.73,1.5,4.99,3.67,6.78,6.53c1.79,2.86,3.03,6.3,3.71,10.34h-10.82c-0.43-1.85-1.07-3.42-1.9-4.7
			c-0.84-1.28-1.86-2.27-3.06-2.95c-1.21-0.69-2.56-1.03-4.06-1.03c-2.94,0-5.22,0.89-6.82,2.68c-1.6,1.79-2.4,4.31-2.4,7.56v15.19
			c0,3.25,0.8,5.76,2.4,7.54c1.6,1.78,3.87,2.67,6.82,2.67c2.28,0,4.21-0.69,5.79-2.06c1.57-1.37,2.65-3.33,3.24-5.86h10.82
			c-0.71,3.88-1.96,7.2-3.75,9.94c-1.79,2.74-4.04,4.83-6.76,6.26C218.51,112.36,215.4,113.08,211.9,113.08z"/>
		<path class="st0" d="M256.86,112.51V57.14h10.43v55.37H256.86z M260.63,67.19V57.14h33.32v10.05H260.63z M260.63,90.04V79.99
			h29.13v10.05H260.63z M260.63,112.51v-9.67h33.32v9.67H260.63z"/>
		<path class="st0" d="M319.07,112.51V57.14h10.43v55.37H319.07z M322.88,67.57V57.14h32.56v10.43H322.88z M322.88,90.72V80.29
			l28.37-0.04v10.43L322.88,90.72z"/>
		<path class="st0" d="M388.32,57.14v55.37h-10.82V57.14H388.32z"/>
		<path class="st0" d="M415.35,112.51V57.14h10.43v55.37H415.35z M419.12,67.19V57.14h33.32v10.05H419.12z M419.12,90.04V79.99
			h29.13v10.05H419.12z M419.12,112.51v-9.67h33.32v9.67H419.12z"/>
		<path class="st0" d="M477.56,112.51V57.14h10.43v55.37H477.56z M482.2,112.51v-10.05h32.45v10.05H482.2z"/>
		<path class="st0" d="M537.86,112.51V57.14h10.43v55.37H537.86z M543.12,112.51v-10.05h13.29c3.48,0,6.17-0.82,8.09-2.48
			c1.92-1.65,2.88-3.99,2.88-7.01v-16.3c0-3.02-0.96-5.36-2.88-7.01c-1.92-1.65-4.61-2.48-8.09-2.48h-13.29V57.14h13.06
			c6.96,0,12.33,1.73,16.13,5.2c3.79,3.47,5.69,8.35,5.69,14.64v15.69c0,6.3-1.9,11.18-5.71,14.64c-3.81,3.47-9.19,5.2-16.15,5.2
			H543.12z"/>
	</g>
	<path class="st1" d="M2,42.2C2,42.2,131.27,2,289.76,2S578,42.2,578,42.2"/>
</g>
</svg>
